 <svg version="1.0" xmlns="http://www.w3.org/2000/svg" width="700.000000pt" height="700.000000pt" viewBox="0 0 700.000000 700.000000" preserveAspectRatio="xMidYMid meet">
 	<g transform="translate(0.000000,700.000000) scale(0.100000,-0.100000)" fill="#000000" stroke="none">
 		<path style="fill:#fff;" d="M3620 6734 c-6 -14 -10 -114 -10 -223 0 -185 1 -199 20 -219 26 -28
 			35 -28 65 3 25 24 25 25 25 233 0 148 -3 211 -12 220 -7 7 -27 12 -45 12 -27
 			0 -35 -5 -43 -26z"></path>
 			<path style="fill:#fff;" d="M2188 6276 c-9 -22 0 -44 85 -203 52 -98 112 -212 133 -253 20 -41
 				67 -131 104 -200 37 -69 106 -202 155 -297 63 -123 94 -173 109 -177 26 -7 66
 				19 66 42 0 9 -46 105 -103 212 -57 107 -150 285 -206 395 -263 508 -261 505
 				-301 505 -23 0 -33 -6 -42 -24z"></path>
 				<path style="fill:#fff;" d="M5018 6283 c-8 -10 -59 -103 -113 -208 -54 -104 -116 -224 -138 -265
 					-152 -283 -307 -597 -307 -621 0 -18 7 -32 21 -39 36 -20 65 12 130 143 34 67
 					98 192 144 277 74 139 212 405 318 611 33 64 38 79 28 97 -14 27 -61 29 -83 5z"></path>
 					<path style="fill:#fff;" d="M3632 6208 c-17 -17 -17 -779 0 -796 15 -15 61 -15 76 0 17 17 17
 						779 0 796 -7 7 -24 12 -38 12 -14 0 -31 -5 -38 -12z"></path>
 						<path style="fill:#fff;" d="M3050 5951 c-11 -22 -8 -47 29 -231 11 -58 28 -145 38 -195 19 -104
 							34 -135 66 -135 46 0 58 43 37 133 -5 23 -21 107 -36 187 -14 80 -34 170 -43
 							200 -15 50 -19 55 -48 58 -24 2 -34 -2 -43 -17z"></path>
 							<path style="fill:#fff;" d="M4166 5948 c-7 -13 -21 -63 -31 -113 -9 -49 -26 -133 -37 -185 -10
 								-52 -24 -126 -30 -164 -10 -66 -10 -70 12 -88 26 -21 31 -22 53 -5 19 14 32
 								62 71 277 14 80 31 167 36 193 13 64 13 73 -6 91 -22 23 -51 20 -68 -6z"></path>
 								<path style="fill:#fff;" d="M1172 5588 c-7 -7 -12 -25 -12 -40 0 -24 75 -103 473 -503 410 -413
 									475 -474 495 -469 28 8 44 36 34 62 -12 33 -939 962 -959 962 -11 0 -24 -5
 									-31 -12z"></path>
 									<path style="fill:#fff;" d="M5605 5138 c-251 -255 -464 -473 -472 -486 -23 -33 -4 -72 35 -72 25
 										0 94 66 498 476 258 262 471 483 472 491 5 21 -27 53 -54 53 -16 0 -145 -124
 										-479 -462z"></path>
 										<path style="fill:#fff;" d="M2126 5414 c-9 -8 -16 -22 -16 -29 0 -8 34 -56 76 -107 41 -51 102
 											-128 135 -171 33 -42 71 -84 85 -93 22 -15 26 -15 49 0 14 9 25 25 25 35 0 16
 											-131 189 -249 329 -47 55 -76 65 -105 36z"></path>
 											<path style="fill:#fff;" d="M5073 5398 c-17 -18 -46 -54 -65 -79 -36 -48 -80 -102 -155 -192 -24
 												-28 -43 -61 -43 -74 0 -27 40 -56 64 -47 19 7 297 351 304 376 6 26 -16 48
 												-47 48 -18 0 -38 -12 -58 -32z"></path>
 												<path style="fill:#fff;" d="M1306 4721 c-27 -29 -12 -60 41 -83 41 -18 46 -18 69 -3 37 24 30 65
 													-16 87 -46 23 -73 22 -94 -1z"></path>
 													<path style="fill:#fff;" d="M5898 4719 c-30 -15 -38 -25 -38 -47 0 -55 44 -68 101 -29 39 26 48
 														57 24 81 -21 21 -41 20 -87 -5z"></path>
 														<path style="fill:#fff;" d="M1488 4639 c-18 -10 -24 -45 -10 -65 12 -18 364 -224 383 -224 34 0
 															59 39 41 67 -10 15 -371 233 -386 233 -6 0 -19 -5 -28 -11z"></path>
 															<path style="fill:#fff;" d="M5590 4545 c-206 -124 -218 -134 -202 -170 8 -18 19 -25 39 -25 34 0
 																378 202 394 231 13 25 -12 69 -39 69 -9 0 -96 -47 -192 -105z"></path>
 																<path style="fill:#fff;" d="M2102 4460 c-12 -5 -27 -21 -32 -35 -6 -17 -10 -441 -10 -1165 0
 																	-1105 1 -1138 19 -1161 l19 -24 1205 0 c663 0 1209 3 1213 7 4 4 -8 24 -27 45
 																	-19 21 -44 51 -56 68 l-21 30 -1089 3 c-598 2 -1091 6 -1095 9 -5 2 -8 386 -8
 																	854 l0 849 1409 0 1408 0 5 -300 c3 -165 8 -303 11 -306 8 -8 105 -36 132 -38
 																	20 -1 20 6 23 562 l2 563 -24 24 -25 25 -1518 -1 c-887 0 -1527 -4 -1541 -9z
 																	m2452 -201 c73 -57 -15 -167 -92 -113 -17 12 -22 25 -22 59 0 34 5 47 22 59
 																	31 22 60 20 92 -5z m221 -4 c14 -13 25 -36 25 -50 0 -14 -11 -37 -25 -50 -13
 																	-14 -36 -25 -50 -25 -14 0 -37 11 -50 25 -14 13 -25 36 -25 50 0 14 11 37 25
 																	50 13 14 36 25 50 25 14 0 37 -11 50 -25z m220 0 c30 -30 32 -64 4 -99 -27
 																	-34 -71 -35 -104 -1 -14 13 -25 36 -25 50 0 14 11 37 25 50 13 14 36 25 50 25
 																	14 0 37 -11 50 -25z"></path>
 																	<path style="fill:#fff;" d="M497 4422 c-20 -22 -21 -33 -4 -55 10 -14 784 -285 902 -317 17 -4
 																		99 -31 184 -60 127 -43 158 -50 177 -41 17 8 24 19 24 40 0 16 -5 33 -10 36
 																		-17 11 -1229 415 -1244 415 -7 0 -20 -8 -29 -18z"></path>
 																		<path style="fill:#fff;" d="M6645 4404 c-55 -20 -113 -39 -130 -44 -106 -31 -978 -330 -990 -340
 																			-33 -27 -12 -80 32 -80 26 0 1221 398 1241 413 19 15 15 65 -7 77 -27 14 -34
 																			13 -146 -26z"></path>
 																			<path style="fill:#fff;" d="M987 3722 c-20 -22 -22 -55 -4 -70 16 -14 177 -39 459 -74 110 -13
 																				128 -7 128 43 0 43 -7 45 -305 84 -66 8 -148 20 -181 25 -80 13 -78 13 -97 -8z"></path>
 																				<path style="fill:#fff;" d="M6190 3729 c-36 -5 -108 -16 -160 -24 -52 -8 -138 -20 -190 -26 -122
 																					-16 -154 -42 -116 -94 13 -18 19 -19 117 -7 297 36 450 60 466 74 18 14 16 53
 																					-3 72 -17 17 -19 18 -114 5z"></path>
 																					<path style="fill:#fff;" d="M4845 3300 c-16 -4 -91 -22 -165 -39 -126 -30 -335 -90 -389 -112
 																						l-23 -10 5 -242 c5 -249 4 -245 54 -401 30 -95 146 -285 221 -363 92 -96 279
 																						-213 339 -213 41 0 198 89 277 157 159 137 273 336 325 563 19 84 21 120 19
 																						300 l-3 204 -95 29 c-127 39 -129 39 -335 91 -194 49 -186 48 -230 36z m395
 																						-464 l15 -26 -225 -225 c-124 -124 -229 -225 -235 -225 -13 0 -205 192 -205
 																						205 0 6 20 30 44 54 l45 44 58 -56 58 -56 182 181 182 181 33 -25 c18 -14 40
 																						-37 48 -52z"></path>
 																						<path style="fill:#fff;" d="M3325 1837 c-150 -85 -312 -533 -290 -804 l6 -83 -56 -35 c-112 -72
 																							-138 -34 -108 164 24 163 23 188 -11 218 -51 44 -102 11 -163 -107 -24 -47
 																							-49 -87 -55 -89 -8 -3 -9 20 -4 78 7 87 0 113 -35 131 -16 9 -26 8 -44 -4 -43
 																							-28 -49 -50 -81 -261 -9 -64 -198 -180 -341 -210 -138 -29 -215 -13 -260 54
 																							-54 80 -6 192 101 236 23 10 81 19 135 22 53 3 102 10 109 16 6 5 12 31 12 58
 																							0 68 -24 90 -130 122 -111 34 -145 66 -145 137 0 94 78 138 228 127 88 -6 216
 																							-42 223 -61 3 -7 1 -37 -4 -67 -4 -30 -7 -60 -4 -67 8 -24 52 -12 92 26 35 34
 																							40 44 40 83 0 148 -209 253 -435 221 -47 -7 -105 -21 -130 -32 -138 -59 -207
 																							-190 -160 -303 20 -49 68 -102 105 -117 44 -18 34 -38 -34 -65 -121 -49 -185
 																							-129 -193 -242 -7 -91 9 -145 58 -198 78 -84 186 -115 342 -96 114 13 242 61
 																							329 123 33 23 43 18 62 -27 16 -36 48 -52 85 -40 14 4 43 50 89 143 38 75 74
 																							138 80 140 9 3 12 -22 12 -86 0 -97 11 -144 44 -180 29 -33 80 -25 190 30 l85
 																							42 22 -28 c48 -61 61 -68 111 -62 26 3 60 12 77 20 39 21 70 20 94 -1 32 -29
 																							119 -22 196 16 75 37 92 38 117 10 22 -26 74 -49 107 -49 12 0 40 9 61 20 22
 																							10 43 17 47 14 21 -13 3 -41 -84 -133 -159 -168 -215 -314 -151 -391 47 -56
 																							120 -73 187 -45 106 44 154 139 172 340 9 103 20 129 68 161 23 15 62 44 86
 																							63 l43 34 25 -31 c42 -54 55 -44 125 89 59 111 151 244 169 244 17 0 16 -14
 																							-10 -89 -36 -103 -23 -195 36 -246 47 -41 84 -39 179 10 99 51 122 73 126 119
 																							4 49 19 46 35 -7 6 -24 22 -59 33 -77 60 -97 131 -99 296 -9 l109 59 3 64 c2
 																							35 -1 68 -6 73 -4 4 -34 -12 -67 -38 -79 -61 -136 -86 -188 -82 -37 3 -44 8
 																							-60 38 -16 30 -18 51 -13 144 4 100 7 113 33 150 l29 41 122 3 c116 2 123 4
 																							138 27 12 18 13 29 5 43 -9 16 -24 20 -85 24 -41 2 -78 7 -82 11 -4 4 10 44
 																							32 89 46 100 56 183 29 253 -20 54 -47 75 -97 75 -31 0 -45 -7 -78 -40 -52
 																							-52 -83 -116 -121 -247 -17 -59 -36 -111 -43 -115 -6 -4 -38 -8 -71 -8 -34 0
 																							-69 -6 -80 -14 -11 -7 -33 -16 -50 -20 -40 -10 -126 -77 -182 -143 -76 -89
 																							-75 -53 2 104 149 304 186 500 102 541 -95 47 -198 -8 -265 -140 -36 -73 -77
 																							-226 -92 -342 -22 -183 -30 -265 -30 -312 0 -40 -7 -61 -31 -97 -41 -63 -117
 																							-139 -132 -134 -20 6 -19 88 2 194 12 56 22 131 23 168 1 60 -1 70 -21 86 -13
 																							11 -34 19 -48 19 -14 0 -36 9 -50 20 -99 77 -272 -87 -330 -314 -8 -33 -20
 																							-67 -26 -76 -15 -25 -71 -52 -98 -48 -22 3 -24 8 -27 69 -2 53 4 88 34 185 44
 																							139 47 171 19 189 -17 11 -27 11 -58 0 -49 -17 -62 -35 -81 -110 -8 -33 -20
 																							-78 -26 -100 -6 -22 -16 -62 -22 -90 -12 -60 -20 -70 -71 -96 -49 -26 -78 -21
 																							-95 14 -20 42 -2 102 73 237 35 63 84 158 110 210 25 52 51 95 58 95 6 0 17
 																							-11 24 -25 18 -36 42 -50 84 -50 54 0 84 17 103 57 19 39 14 67 -17 101 -24
 																							26 -87 30 -127 7 -47 -27 -47 -30 -20 123 13 77 1 132 -37 161 -33 27 -68 26
 																							-118 -2z m1220 -117 c17 -28 -82 -338 -151 -472 -15 -30 -39 -29 -30 0 3 10
 																							10 46 16 82 18 119 40 204 72 275 49 109 76 142 93 115z m-1190 -39 c6 -10
 																							-23 -139 -35 -156 -4 -5 -10 -23 -14 -40 -14 -58 -95 -215 -111 -215 -8 0 -15
 																							2 -15 3 0 13 39 187 44 195 3 5 8 23 11 41 3 18 10 40 15 49 54 101 74 132 85
 																							132 8 0 16 -4 20 -9z m1792 -92 c-5 -41 -78 -202 -97 -214 -24 -15 -28 12 -10
 																							80 31 114 38 133 60 165 18 26 24 29 37 18 10 -8 14 -24 10 -49z m-272 -315
 																							c10 -10 14 -25 11 -38 -3 -12 -6 -69 -6 -128 0 -101 -1 -108 -20 -108 -10 0
 																							-35 -17 -55 -39 -40 -43 -105 -77 -131 -67 -13 5 -16 17 -12 69 3 47 14 82 45
 																							145 23 45 44 105 48 132 l7 50 48 0 c32 0 54 -6 65 -16z m-949 -216 c-31 -152
 																							-49 -192 -90 -196 -37 -5 -54 12 -61 61 -7 48 17 122 66 199 33 51 88 93 103
 																							78 6 -6 -2 -62 -18 -142z m-41 -580 c-26 -99 -62 -158 -96 -158 -10 0 -20 4
 																							-24 9 -9 15 32 114 76 182 34 52 43 60 50 46 7 -11 4 -38 -6 -79z"></path>
 																						</g>
 																					</svg>